<svg version="1.2" xmlns="http://www.w3.org/2000/svg" viewBox="0 0 100 100" width="100" height="100"><defs><clipPath clipPathUnits="userSpaceOnUse" id="cp1"><path d="m0 30c0-16.57 13.43-30 30-30h40c16.57 0 30 13.43 30 30v40c0 16.57-13.43 30-30 30h-40c-16.57 0-30-13.43-30-30z"/></clipPath></defs><style>.a{fill:#d9d9d9}.b{fill:#575757}.c{opacity:.3;fill:#d9d9d9}.d{fill:#222}</style><path class="a" d="m0 30c0-16.6 13.4-30 30-30h40c16.6 0 30 13.4 30 30v40c0 16.6-13.4 30-30 30h-40c-16.6 0-30-13.4-30-30z"/><g clip-path="url(#cp1)"><path class="b" d="m0 0h100zm100 70c0 18.2-14.8 33-33 33h-34c-18.2 0-33-14.8-33-33 0 14.9 13.4 27 30 27h40c16.6 0 30-12.1 30-27zm-100 30v-100zm100-100v100z"/></g><path class="c" d="m0 30c0-16.6 13.4-30 30-30h40c16.6 0 30 13.4 30 30v40c0 16.6-13.4 30-30 30h-40c-16.6 0-30-13.4-30-30z"/><path class="d" d="m25 50c0-2.8 2.2-5 5-5h40c2.8 0 5 2.2 5 5v16c0 5.5-4.5 10-10 10h-30c-5.5 0-10-4.5-10-10z"/><path class="d" d="m25 34c0-5.5 4.5-10 10-10h30c5.5 0 10 4.5 10 10v1c0 2.8-2.2 5-5 5h-40c-2.8 0-5-2.2-5-5z"/></svg>